{
    "asset" : {
        "generator" : "Khronos glTF Blender I/O v3.2.40",
        "version" : "2.0"
    },
    "scene" : 0,
    "scenes" : [
        {
            "name" : "Scene",
            "nodes" : [
                0,
                1,
                2,
                3,
                4,
                5,
                6,
                7,
                8,
                9
            ]
        }
    ],
    "nodes" : [
        {
            "mesh" : 0,
            "name" : "Cube.001"
        },
        {
            "mesh" : 1,
            "name" : "Cube.002"
        },
        {
            "mesh" : 2,
            "name" : "Cube.003"
        },
        {
            "mesh" : 3,
            "name" : "Cube.004"
        },
        {
            "mesh" : 4,
            "name" : "Cube.005"
        },
        {
            "mesh" : 5,
            "name" : "Cube.007"
        },
        {
            "mesh" : 6,
            "name" : "Cube.008"
        },
        {
            "mesh" : 7,
            "name" : "Cube.009"
        },
        {
            "mesh" : 8,
            "name" : "Cube.010"
        },
        {
            "mesh" : 9,
            "name" : "Cube.011"
        }
    ],
    "materials" : [
        {
            "doubleSided" : true,
            "name" : "Material.004",
            "pbrMetallicRoughness" : {
                "baseColorTexture" : {
                    "index" : 0
                },
                "metallicFactor" : 0
            }
        }
    ],
    "meshes" : [
        {
            "name" : "Cube.007",
            "primitives" : [
                {
                    "attributes" : {
                        "POSITION" : 0,
                        "NORMAL" : 1,
                        "TEXCOORD_0" : 2,
                        "COLOR_0" : 3
                    },
                    "indices" : 4,
                    "material" : 0
                }
            ]
        },
        {
            "name" : "Cube.002",
            "primitives" : [
                {
                    "attributes" : {
                        "POSITION" : 5,
                        "NORMAL" : 6,
                        "TEXCOORD_0" : 7,
                        "COLOR_0" : 8
                    },
                    "indices" : 9,
                    "material" : 0
                }
            ]
        },
        {
            "name" : "Cube.003",
            "primitives" : [
                {
                    "attributes" : {
                        "POSITION" : 10,
                        "NORMAL" : 11,
                        "TEXCOORD_0" : 12,
                        "COLOR_0" : 13
                    },
                    "indices" : 14,
                    "material" : 0
                }
            ]
        },
        {
            "name" : "Cube.004",
            "primitives" : [
                {
                    "attributes" : {
                        "POSITION" : 15,
                        "NORMAL" : 16,
                        "TEXCOORD_0" : 17,
                        "COLOR_0" : 18
                    },
                    "indices" : 19,
                    "material" : 0
                }
            ]
        },
        {
            "name" : "Cube.005",
            "primitives" : [
                {
                    "attributes" : {
                        "POSITION" : 20,
                        "NORMAL" : 21,
                        "TEXCOORD_0" : 22,
                        "COLOR_0" : 23
                    },
                    "indices" : 24,
                    "material" : 0
                }
            ]
        },
        {
            "name" : "Cube.006",
            "primitives" : [
                {
                    "attributes" : {
                        "POSITION" : 25,
                        "NORMAL" : 26,
                        "TEXCOORD_0" : 27,
                        "COLOR_0" : 28
                    },
                    "indices" : 29,
                    "material" : 0
                }
            ]
        },
        {
            "name" : "Cube.008",
            "primitives" : [
                {
                    "attributes" : {
                        "POSITION" : 30,
                        "NORMAL" : 31,
                        "TEXCOORD_0" : 32,
                        "COLOR_0" : 33
                    },
                    "indices" : 34,
                    "material" : 0
                }
            ]
        },
        {
            "name" : "Cube.009",
            "primitives" : [
                {
                    "attributes" : {
                        "POSITION" : 35,
                        "NORMAL" : 36,
                        "TEXCOORD_0" : 37,
                        "COLOR_0" : 38
                    },
                    "indices" : 39,
                    "material" : 0
                }
            ]
        },
        {
            "name" : "Cube.010",
            "primitives" : [
                {
                    "attributes" : {
                        "POSITION" : 40,
                        "NORMAL" : 41,
                        "TEXCOORD_0" : 42,
                        "COLOR_0" : 43
                    },
                    "indices" : 44,
                    "material" : 0
                }
            ]
        },
        {
            "name" : "Cube.011",
            "primitives" : [
                {
                    "attributes" : {
                        "POSITION" : 45,
                        "NORMAL" : 46,
                        "TEXCOORD_0" : 47,
                        "COLOR_0" : 48
                    },
                    "indices" : 49,
                    "material" : 0
                }
            ]
        }
    ],
    "textures" : [
        {
            "sampler" : 0,
            "source" : 0
        }
    ],
    "images" : [
        {
            "bufferView" : 5,
            "mimeType" : "image/png",
            "name" : "Gandalf texture 1"
        }
    ],
    "accessors" : [
        {
            "bufferView" : 0,
            "componentType" : 5126,
            "count" : 710,
            "max" : [
                0.8437719345092773,
                3.667309522628784,
                0.3872491419315338
            ],
            "min" : [
                -0.8437719345092773,
                0.23998740315437317,
                -0.4185127019882202
            ],
            "type" : "VEC3"
        },
        {
            "bufferView" : 1,
            "componentType" : 5126,
            "count" : 710,
            "type" : "VEC3"
        },
        {
            "bufferView" : 2,
            "componentType" : 5126,
            "count" : 710,
            "type" : "VEC2"
        },
        {
            "bufferView" : 3,
            "componentType" : 5123,
            "count" : 710,
            "normalized" : true,
            "type" : "VEC4"
        },
        {
            "bufferView" : 4,
            "componentType" : 5123,
            "count" : 1062,
            "type" : "SCALAR"
        },
        {
            "bufferView" : 6,
            "componentType" : 5126,
            "count" : 68,
            "max" : [
                0.26145482063293457,
                3.875518798828125,
                0.41858088970184326
            ],
            "min" : [
                -0.26145482063293457,
                3.1887764930725098,
                0.11514493823051453
            ],
            "type" : "VEC3"
        },
        {
            "bufferView" : 7,
            "componentType" : 5126,
            "count" : 68,
            "type" : "VEC3"
        },
        {
            "bufferView" : 8,
            "componentType" : 5126,
            "count" : 68,
            "type" : "VEC2"
        },
        {
            "bufferView" : 9,
            "componentType" : 5123,
            "count" : 68,
            "normalized" : true,
            "type" : "VEC4"
        },
        {
            "bufferView" : 10,
            "componentType" : 5123,
            "count" : 108,
            "type" : "SCALAR"
        },
        {
            "bufferView" : 11,
            "componentType" : 5126,
            "count" : 332,
            "max" : [
                0.3815491795539856,
                4.247072219848633,
                0.42408889532089233
            ],
            "min" : [
                -0.3815491795539856,
                3.4033875465393066,
                -0.18415845930576324
            ],
            "type" : "VEC3"
        },
        {
            "bufferView" : 12,
            "componentType" : 5126,
            "count" : 332,
            "type" : "VEC3"
        },
        {
            "bufferView" : 13,
            "componentType" : 5126,
            "count" : 332,
            "type" : "VEC2"
        },
        {
            "bufferView" : 14,
            "componentType" : 5123,
            "count" : 332,
            "normalized" : true,
            "type" : "VEC4"
        },
        {
            "bufferView" : 15,
            "componentType" : 5123,
            "count" : 480,
            "type" : "SCALAR"
        },
        {
            "bufferView" : 16,
            "componentType" : 5126,
            "count" : 216,
            "max" : [
                0.4492434561252594,
                1.3733595609664917,
                0.28074511885643005
            ],
            "min" : [
                0.035210926085710526,
                -0.03496002033352852,
                -0.2926802933216095
            ],
            "type" : "VEC3"
        },
        {
            "bufferView" : 17,
            "componentType" : 5126,
            "count" : 216,
            "type" : "VEC3"
        },
        {
            "bufferView" : 18,
            "componentType" : 5126,
            "count" : 216,
            "type" : "VEC2"
        },
        {
            "bufferView" : 19,
            "componentType" : 5123,
            "count" : 216,
            "normalized" : true,
            "type" : "VEC4"
        },
        {
            "bufferView" : 20,
            "componentType" : 5123,
            "count" : 324,
            "type" : "SCALAR"
        },
        {
            "bufferView" : 21,
            "componentType" : 5126,
            "count" : 160,
            "max" : [
                0.7645785808563232,
                2.3022727966308594,
                0.42853042483329773
            ],
            "min" : [
                0.4755903482437134,
                1.7060729265213013,
                0.10463447123765945
            ],
            "type" : "VEC3"
        },
        {
            "bufferView" : 22,
            "componentType" : 5126,
            "count" : 160,
            "type" : "VEC3"
        },
        {
            "bufferView" : 23,
            "componentType" : 5126,
            "count" : 160,
            "type" : "VEC2"
        },
        {
            "bufferView" : 24,
            "componentType" : 5123,
            "count" : 160,
            "normalized" : true,
            "type" : "VEC4"
        },
        {
            "bufferView" : 25,
            "componentType" : 5123,
            "count" : 240,
            "type" : "SCALAR"
        },
        {
            "bufferView" : 26,
            "componentType" : 5126,
            "count" : 216,
            "max" : [
                -0.035210926085710526,
                1.3566594123840332,
                0.28074511885643005
            ],
            "min" : [
                -0.4097004532814026,
                -0.03496002033352852,
                -0.2926802933216095
            ],
            "type" : "VEC3"
        },
        {
            "bufferView" : 27,
            "componentType" : 5126,
            "count" : 216,
            "type" : "VEC3"
        },
        {
            "bufferView" : 28,
            "componentType" : 5126,
            "count" : 216,
            "type" : "VEC2"
        },
        {
            "bufferView" : 29,
            "componentType" : 5123,
            "count" : 216,
            "normalized" : true,
            "type" : "VEC4"
        },
        {
            "bufferView" : 30,
            "componentType" : 5123,
            "count" : 324,
            "type" : "SCALAR"
        },
        {
            "bufferView" : 31,
            "componentType" : 5126,
            "count" : 160,
            "max" : [
                -0.4755903482437134,
                2.3022727966308594,
                0.42853042483329773
            ],
            "min" : [
                -0.7645785808563232,
                1.7060729265213013,
                0.10463447123765945
            ],
            "type" : "VEC3"
        },
        {
            "bufferView" : 32,
            "componentType" : 5126,
            "count" : 160,
            "type" : "VEC3"
        },
        {
            "bufferView" : 33,
            "componentType" : 5126,
            "count" : 160,
            "type" : "VEC2"
        },
        {
            "bufferView" : 34,
            "componentType" : 5123,
            "count" : 160,
            "normalized" : true,
            "type" : "VEC4"
        },
        {
            "bufferView" : 35,
            "componentType" : 5123,
            "count" : 240,
            "type" : "SCALAR"
        },
        {
            "bufferView" : 36,
            "componentType" : 5126,
            "count" : 248,
            "max" : [
                0.441429078578949,
                2.5297985076904297,
                0.37878337502479553
            ],
            "min" : [
                -0.441429078578949,
                1.3889998197555542,
                -0.2398316115140915
            ],
            "type" : "VEC3"
        },
        {
            "bufferView" : 37,
            "componentType" : 5126,
            "count" : 248,
            "type" : "VEC3"
        },
        {
            "bufferView" : 38,
            "componentType" : 5126,
            "count" : 248,
            "type" : "VEC2"
        },
        {
            "bufferView" : 39,
            "componentType" : 5123,
            "count" : 248,
            "normalized" : true,
            "type" : "VEC4"
        },
        {
            "bufferView" : 40,
            "componentType" : 5123,
            "count" : 372,
            "type" : "SCALAR"
        },
        {
            "bufferView" : 41,
            "componentType" : 5126,
            "count" : 136,
            "max" : [
                0.424457848072052,
                4.4674272537231445,
                0.5231877565383911
            ],
            "min" : [
                -0.424457848072052,
                3.8118767738342285,
                -0.28159642219543457
            ],
            "type" : "VEC3"
        },
        {
            "bufferView" : 42,
            "componentType" : 5126,
            "count" : 136,
            "type" : "VEC3"
        },
        {
            "bufferView" : 43,
            "componentType" : 5126,
            "count" : 136,
            "type" : "VEC2"
        },
        {
            "bufferView" : 44,
            "componentType" : 5123,
            "count" : 136,
            "normalized" : true,
            "type" : "VEC4"
        },
        {
            "bufferView" : 45,
            "componentType" : 5123,
            "count" : 210,
            "type" : "SCALAR"
        },
        {
            "bufferView" : 46,
            "componentType" : 5126,
            "count" : 69,
            "max" : [
                0.3021606504917145,
                4.2571821212768555,
                0.3440251052379608
            ],
            "min" : [
                0,
                3.2737066745758057,
                -0.3871003985404968
            ],
            "type" : "VEC3"
        },
        {
            "bufferView" : 47,
            "componentType" : 5126,
            "count" : 69,
            "type" : "VEC3"
        },
        {
            "bufferView" : 48,
            "componentType" : 5126,
            "count" : 69,
            "type" : "VEC2"
        },
        {
            "bufferView" : 49,
            "componentType" : 5123,
            "count" : 69,
            "normalized" : true,
            "type" : "VEC4"
        },
        {
            "bufferView" : 50,
            "componentType" : 5123,
            "count" : 105,
            "type" : "SCALAR"
        }
    ],
    "bufferViews" : [
        {
            "buffer" : 0,
            "byteLength" : 8520,
            "byteOffset" : 0
        },
        {
            "buffer" : 0,
            "byteLength" : 8520,
            "byteOffset" : 8520
        },
        {
            "buffer" : 0,
            "byteLength" : 5680,
            "byteOffset" : 17040
        },
        {
            "buffer" : 0,
            "byteLength" : 5680,
            "byteOffset" : 22720
        },
        {
            "buffer" : 0,
            "byteLength" : 2124,
            "byteOffset" : 28400
        },
        {
            "buffer" : 0,
            "byteLength" : 69917,
            "byteOffset" : 30524
        },
        {
            "buffer" : 0,
            "byteLength" : 816,
            "byteOffset" : 100444
        },
        {
            "buffer" : 0,
            "byteLength" : 816,
            "byteOffset" : 101260
        },
        {
            "buffer" : 0,
            "byteLength" : 544,
            "byteOffset" : 102076
        },
        {
            "buffer" : 0,
            "byteLength" : 544,
            "byteOffset" : 102620
        },
        {
            "buffer" : 0,
            "byteLength" : 216,
            "byteOffset" : 103164
        },
        {
            "buffer" : 0,
            "byteLength" : 3984,
            "byteOffset" : 103380
        },
        {
            "buffer" : 0,
            "byteLength" : 3984,
            "byteOffset" : 107364
        },
        {
            "buffer" : 0,
            "byteLength" : 2656,
            "byteOffset" : 111348
        },
        {
            "buffer" : 0,
            "byteLength" : 2656,
            "byteOffset" : 114004
        },
        {
            "buffer" : 0,
            "byteLength" : 960,
            "byteOffset" : 116660
        },
        {
            "buffer" : 0,
            "byteLength" : 2592,
            "byteOffset" : 117620
        },
        {
            "buffer" : 0,
            "byteLength" : 2592,
            "byteOffset" : 120212
        },
        {
            "buffer" : 0,
            "byteLength" : 1728,
            "byteOffset" : 122804
        },
        {
            "buffer" : 0,
            "byteLength" : 1728,
            "byteOffset" : 124532
        },
        {
            "buffer" : 0,
            "byteLength" : 648,
            "byteOffset" : 126260
        },
        {
            "buffer" : 0,
            "byteLength" : 1920,
            "byteOffset" : 126908
        },
        {
            "buffer" : 0,
            "byteLength" : 1920,
            "byteOffset" : 128828
        },
        {
            "buffer" : 0,
            "byteLength" : 1280,
            "byteOffset" : 130748
        },
        {
            "buffer" : 0,
            "byteLength" : 1280,
            "byteOffset" : 132028
        },
        {
            "buffer" : 0,
            "byteLength" : 480,
            "byteOffset" : 133308
        },
        {
            "buffer" : 0,
            "byteLength" : 2592,
            "byteOffset" : 133788
        },
        {
            "buffer" : 0,
            "byteLength" : 2592,
            "byteOffset" : 136380
        },
        {
            "buffer" : 0,
            "byteLength" : 1728,
            "byteOffset" : 138972
        },
        {
            "buffer" : 0,
            "byteLength" : 1728,
            "byteOffset" : 140700
        },
        {
            "buffer" : 0,
            "byteLength" : 648,
            "byteOffset" : 142428
        },
        {
            "buffer" : 0,
            "byteLength" : 1920,
            "byteOffset" : 143076
        },
        {
            "buffer" : 0,
            "byteLength" : 1920,
            "byteOffset" : 144996
        },
        {
            "buffer" : 0,
            "byteLength" : 1280,
            "byteOffset" : 146916
        },
        {
            "buffer" : 0,
            "byteLength" : 1280,
            "byteOffset" : 148196
        },
        {
            "buffer" : 0,
            "byteLength" : 480,
            "byteOffset" : 149476
        },
        {
            "buffer" : 0,
            "byteLength" : 2976,
            "byteOffset" : 149956
        },
        {
            "buffer" : 0,
            "byteLength" : 2976,
            "byteOffset" : 152932
        },
        {
            "buffer" : 0,
            "byteLength" : 1984,
            "byteOffset" : 155908
        },
        {
            "buffer" : 0,
            "byteLength" : 1984,
            "byteOffset" : 157892
        },
        {
            "buffer" : 0,
            "byteLength" : 744,
            "byteOffset" : 159876
        },
        {
            "buffer" : 0,
            "byteLength" : 1632,
            "byteOffset" : 160620
        },
        {
            "buffer" : 0,
            "byteLength" : 1632,
            "byteOffset" : 162252
        },
        {
            "buffer" : 0,
            "byteLength" : 1088,
            "byteOffset" : 163884
        },
        {
            "buffer" : 0,
            "byteLength" : 1088,
            "byteOffset" : 164972
        },
        {
            "buffer" : 0,
            "byteLength" : 420,
            "byteOffset" : 166060
        },
        {
            "buffer" : 0,
            "byteLength" : 828,
            "byteOffset" : 166480
        },
        {
            "buffer" : 0,
            "byteLength" : 828,
            "byteOffset" : 167308
        },
        {
            "buffer" : 0,
            "byteLength" : 552,
            "byteOffset" : 168136
        },
        {
            "buffer" : 0,
            "byteLength" : 552,
            "byteOffset" : 168688
        },
        {
            "buffer" : 0,
            "byteLength" : 210,
            "byteOffset" : 169240
        }
    ],
    "samplers" : [
        {
            "magFilter" : 9728,
            "minFilter" : 9984
        }
    ],
    "buffers" : [
        {
            "byteLength" : 169452,
            "uri" : "data:application/octet-stream;base64,"
        }
    ]
}
